<svg xmlns="http://www.w3.org/2000/svg" width="110.933" height="24" viewBox="0 0 110.933 24"><defs><style>.a{fill:#471ff5;}.b{fill:#f2004a;}</style></defs><g transform="translate(-204.208 -100.763)"><path class="a" d="M215.794,109.337a6.074,6.074,0,0,0,0,12.138,7.277,7.277,0,0,0,3.93-1.345,2.159,2.159,0,0,1,2.789.321l1.894,2.036a12.841,12.841,0,0,1-8.919,3.984,10.878,10.878,0,0,1-11.28-11.034c0-6.192,4.935-10.851,11.495-10.851a12.327,12.327,0,0,1,8.674,3.679L222.6,110.4a2.155,2.155,0,0,1-2.94.358A6.645,6.645,0,0,0,215.794,109.337Z" transform="translate(0 -1.709)"/><path class="a" d="M260.066,121.858c0,5.119-3.617,8.49-9.073,8.49s-9.042-3.372-9.042-8.49c0-5.088,3.586-8.46,9.042-8.46S260.066,116.77,260.066,121.858Zm-12.628.061c0,2.483,1.44,4.138,3.555,4.138,2.145,0,3.586-1.655,3.586-4.138,0-2.452-1.441-4.107-3.586-4.107C248.878,117.812,247.438,119.467,247.438,121.919Z" transform="translate(-16.868 -5.647)"/><path class="a" d="M289.3,126.383a9.126,9.126,0,0,1-4.475,1.1c-3.218.031-5.548-1.87-5.548-5.3v-7.111h-2.3v-3.617h2.3v-4.6H284.7v4.6h4.291v1.451a2.166,2.166,0,0,1-2.166,2.165H284.7v6.253c0,1.226.552,1.778,1.5,1.747a5.724,5.724,0,0,0,2.054-.552Z" transform="translate(-32.522 -2.724)"/><path class="a" d="M309.394,107.935v16.583h-5.426V107.935Zm-.215-4.659a2.483,2.483,0,1,1-2.482-2.513A2.4,2.4,0,0,1,309.179,103.276Z" transform="translate(-44.585 0)"/><path class="b" d="M327.674,117.9c-1.962,0-3.311,1.624-3.311,4.015,0,2.421,1.349,4.015,3.311,4.015a3.6,3.6,0,0,0,2.413-.8,2.108,2.108,0,0,1,2.4-.17l2.447,1.4c-1.318,2.544-4.015,3.984-7.54,3.984-5.064,0-8.448-3.269-8.52-8.236a8.606,8.606,0,0,1,8.583-8.714,8.177,8.177,0,0,1,7.416,3.924l-2.507,1.458a2.181,2.181,0,0,1-2.393-.149A3.806,3.806,0,0,0,327.674,117.9Z" transform="translate(-51.249 -5.647)"/><path class="b" d="M365.668,119.351V130.14H360.3v-1.87a5.984,5.984,0,0,1-5,2.115c-3.556,0-5.671-2.145-5.671-5.18,0-3.157,2.238-4.965,6.345-5.027H360.3v-.184c0-1.564-1.072-2.483-3.157-2.483a10.289,10.289,0,0,0-3.1.562,2.165,2.165,0,0,1-2.681-1.236l-.689-1.687a18.276,18.276,0,0,1,7.724-1.808C362.971,113.343,365.638,115.55,365.668,119.351Zm-5.364,5.18V123.09h-3.249c-1.533,0-2.3.552-2.3,1.717,0,1.134.828,1.869,2.238,1.869A3.271,3.271,0,0,0,360.3,124.531Z" transform="translate(-64.996 -5.622)"/><path class="b" d="M396.063,113.343v2.93a2.147,2.147,0,0,1-1.865,2.1,3.767,3.767,0,0,0-3.468,3.308v8.46h-5.456V113.557h5.456v2.759A5.962,5.962,0,0,1,396.063,113.343Z" transform="translate(-80.923 -5.622)"/></g></svg>